<?xml version="1.0" encoding="UTF-8"?>
<svg id="Layer_1" data-name="Layer 1" xmlns="http://www.w3.org/2000/svg" xmlns:xlink="http://www.w3.org/1999/xlink" viewBox="0 0 188.81 231.19">
  <defs>
    <style>
      .cls-1 {
        clip-path: url(#clippath);
      }

      .cls-2 {
        fill: none;
      }

      .cls-2, .cls-3, .cls-4, .cls-5, .cls-6, .cls-7, .cls-8, .cls-9, .cls-10, .cls-11, .cls-12 {
        stroke-width: 0px;
      }

      .cls-3 {
        fill: url(#radial-gradient);
      }

      .cls-4 {
        fill: url(#radial-gradient-2);
      }

      .cls-5 {
        fill: url(#radial-gradient-3);
      }

      .cls-6 {
        fill: url(#radial-gradient-4);
      }

      .cls-7 {
        fill: url(#radial-gradient-6);
      }

      .cls-8 {
        fill: url(#radial-gradient-5);
      }

      .cls-9 {
        fill: url(#radial-gradient-7);
      }

      .cls-10 {
        fill: #2f4932;
      }

      .cls-11 {
        fill: #7a0026;
      }

      .cls-12 {
        fill: #fff;
      }
    </style>
    <clipPath id="clippath">
      <polygon class="cls-2" points="27.73 185.96 33.33 192.63 41.55 193.84 55.37 204.49 64.4 204.76 73.43 207.19 80.44 209.28 87.78 212.78 96.28 215.14 101.87 223.91 110.7 223.03 116.5 218.72 131.8 213.32 136.11 205.84 141.7 201.12 146.29 194.38 148.51 187.04 149.99 179.08 153.5 171.81 152.42 163.18 150.2 154.55 157.95 148.1 154.29 139.2 157.89 131.51 162.39 124.58 163.91 116.6 164.66 108.9 162.24 100 166.23 93.23 170.68 83.5 168.67 69.08 123.9 51.85 97.16 64.97 100.5 43.94 73.02 68.13 58.85 73.39 44.02 75.92 31.42 85.49 20.54 87.74 17.81 90.31 12.61 97.53 20.6 113.76 20.12 121.85 18.19 130.34 22.88 137.77 23.15 145.92 24.56 153.67 28.54 161.29 30.29 168.97 32.99 176.73 27.73 185.96"/>
    </clipPath>
    <radialGradient id="radial-gradient" cx="134.93" cy="191.79" fx="134.93" fy="191.79" r="37.73" gradientUnits="userSpaceOnUse">
      <stop offset="0" stop-color="#526f58"/>
      <stop offset=".22" stop-color="rgba(87, 115, 93, .97)" stop-opacity=".97"/>
      <stop offset=".4" stop-color="rgba(103, 128, 108, .88)" stop-opacity=".88"/>
      <stop offset=".58" stop-color="rgba(130, 151, 135, .72)" stop-opacity=".72"/>
      <stop offset=".74" stop-color="rgba(169, 183, 172, .49)" stop-opacity=".49"/>
      <stop offset=".9" stop-color="rgba(218, 224, 220, .21)" stop-opacity=".21"/>
      <stop offset="1" stop-color="#fff" stop-opacity="0"/>
    </radialGradient>
    <radialGradient id="radial-gradient-2" cx="68.16" cy="185.73" fx="68.16" fy="185.73" r="18.76" xlink:href="#radial-gradient"/>
    <radialGradient id="radial-gradient-3" cx="54.14" cy="74.29" fx="54.14" fy="74.29" r="37.11" gradientUnits="userSpaceOnUse">
      <stop offset="0" stop-color="#507175"/>
      <stop offset=".21" stop-color="rgba(85, 117, 120, .97)" stop-opacity=".97"/>
      <stop offset=".39" stop-color="rgba(100, 129, 133, .88)" stop-opacity=".88"/>
      <stop offset=".56" stop-color="rgba(127, 151, 154, .73)" stop-opacity=".73"/>
      <stop offset=".73" stop-color="rgba(164, 181, 183, .52)" stop-opacity=".52"/>
      <stop offset=".88" stop-color="rgba(211, 219, 220, .25)" stop-opacity=".25"/>
      <stop offset="1" stop-color="#fff" stop-opacity="0"/>
    </radialGradient>
    <radialGradient id="radial-gradient-4" cx="29.47" cy="95.76" fx="29.47" fy="95.76" r="30.47" gradientUnits="userSpaceOnUse">
      <stop offset="0" stop-color="#526f58"/>
      <stop offset=".22" stop-color="rgba(82, 111, 88, .97)" stop-opacity=".97"/>
      <stop offset=".4" stop-color="rgba(82, 111, 88, .88)" stop-opacity=".88"/>
      <stop offset=".58" stop-color="rgba(82, 111, 88, .72)" stop-opacity=".72"/>
      <stop offset=".74" stop-color="rgba(82, 111, 88, .49)" stop-opacity=".49"/>
      <stop offset=".9" stop-color="rgba(82, 111, 88, .21)" stop-opacity=".21"/>
      <stop offset="1" stop-color="#526f58" stop-opacity="0"/>
    </radialGradient>
    <radialGradient id="radial-gradient-5" cx="134.68" cy="147.88" fx="134.68" fy="147.88" r="28.72" xlink:href="#radial-gradient-3"/>
    <radialGradient id="radial-gradient-6" cx="104.03" cy="199.45" fx="104.03" fy="199.45" r="13.74" xlink:href="#radial-gradient"/>
    <radialGradient id="radial-gradient-7" cx="154.38" cy="145.61" fx="154.38" fy="145.61" r="13.74" xlink:href="#radial-gradient"/>
  </defs>
  <polygon class="cls-11" points="33.28 192.67 41.43 193.99 48.32 199.4 55.25 204.68 64.22 204.81 72.41 206.9 80.45 209.39 88.06 212.98 96.21 215.19 101.77 223.96 110.71 223.11 116.64 218.65 124.39 216.11 131.93 213.26 136.35 205.78 141.94 201.12 146.26 194.53 148.66 186.89 150.15 179.04 153.65 171.64 152.48 163.22 150.24 154.55 158.03 148.09 154.34 139.11 157.81 131.7 162.43 124.55 164.02 116.73 164.82 108.73 162.33 100.01 166.61 92.78 169.96 85.34 171.03 77.4 176.1 68.48 168.96 61.45 161.55 57.18 153.2 53.86 150.56 42.82 140.93 43.91 132.53 48.72 124.55 43.28 116.27 44.97 108.13 43.31 99.95 42.79 91.68 44.35 83.66 39.7 75.4 40.99 67.07 43.92 58.86 43.88 50.84 39.22 43.47 43.56 38.08 48.38 39.35 57.49 30.69 61.98 31.63 70.94 24.95 76.35 24.11 84.48 17.91 90.13 12.58 97.51 16.62 106.14 20.57 113.62 20.03 121.87 18.11 130.35 22.76 137.71 23.06 145.81 24.5 153.72 28.41 161.21 30.27 169.05 32.89 176.76 27.6 185.97 33.28 192.67"/>
  <polygon class="cls-12" points="61.03 106.27 61.54 111.69 61.74 117.44 57.28 120.74 52.51 118.64 50.03 113.69 48.47 108.38 48.61 102.88 48.53 97.21 52.66 93.33 56.88 96.45 60.37 100.73 61.03 106.27"/>
  <polygon class="cls-12" points="98.52 149.81 99.22 155.46 96.75 160.56 92.46 164.5 88.57 160.32 86.59 155.27 86.52 149.81 86.67 144.35 88.74 139.38 92.46 136.37 97.42 138.67 98.37 144.33 98.52 149.81"/>
  <polygon class="cls-12" points="65.18 165.97 66.59 171.36 65.44 176.78 62.49 181.43 57.08 179.28 55.02 173.99 52.22 169.13 52.37 163.53 53 158.22 55.64 153.37 60.7 156 64.45 160.3 65.18 165.97"/>
  <polygon class="cls-12" points="111.01 96.8 110.55 102.47 107.02 106.97 102.85 110.01 98.43 106.65 96.9 101.14 96.66 95.44 99.14 90.24 101.29 85.31 105.49 82.08 109.11 86.01 111.3 91.17 111.01 96.8"/>
  <polygon class="cls-12" points="142.53 133.44 139.73 138.36 136.87 142.93 132.29 145.54 128.59 141.43 127.67 135.83 128.99 130.36 130.02 124.78 133.52 120.28 138.68 117.48 141.53 122.43 142.67 127.79 142.53 133.44"/>
  <polygon class="cls-12" points="126.08 184.1 123.95 189.13 120.45 193.22 115.94 194.96 112.73 191 112.42 185.44 114.07 180.12 116 174.92 119.15 170.19 124.41 169.43 127.2 173.39 127.95 178.86 126.08 184.1"/>
  <polygon class="cls-10" points="2.75 88.82 16.75 88.63 31.28 85.52 44.13 75.92 58.54 73.47 73.09 68.18 84.58 58.22 95.86 47.98 107.39 38.07 118.44 30.52 105.9 31.71 91.48 32.98 77.12 29.47 62.72 29.69 48.31 29.5 35.3 31.29 27.52 41.07 23.04 54.3 16.58 66.47 6.94 77 2.75 88.82"/>
  <polygon class="cls-10" points="174.46 191.54 169.79 195.49 162.35 195.73 155.73 199.15 149.09 202.24 143.82 214.44 133.46 222.07 129.68 228 124.92 230.59 131.3 231.19 138.97 230.46 145.84 228.46 152.91 227.51 159.54 225.35 165.97 222.48 167.66 214.32 171.23 206.64 172.68 198.49 174.46 191.54"/>
  <polygon class="cls-10" points="185.35 96.94 175.73 89.69 163.86 82.42 150.36 77.63 140.89 66.67 128.24 60.58 116.27 53.44 105.13 45.63 109.42 25.31 128.12 25.56 142.43 31.55 152.81 43.68 167.22 50.55 179.13 60.7 188.81 72.32 185.86 84.79 185.35 96.94"/>
  <polygon class="cls-10" points="106.1 0 99.34 10.16 94.03 21.63 88.03 33.46 101.98 34.26 115.29 34.75 118.59 22.18 120.01 9.58 106.1 0"/>
  <polyline class="cls-10" points="104.09 28.99 111.75 40.21 118.09 52.2 123.03 65 132.81 75 138.46 87.4 145.24 100.03 130.6 98.52 116.54 98.84 101.86 96.94 91.54 77.99 96.98 65.3 99.27 52.59 101.43 39.84 102.94 26.95"/>
  <polygon class="cls-10" points="186.98 222.41 184.48 218.95 183.25 215 178.88 218.27 174.74 220.11 173.53 226.62 178.18 224.16 182.59 224.25 186.98 222.41"/>
  <g class="cls-1">
    <ellipse class="cls-3" cx="134.93" cy="191.79" rx="36.49" ry="38.93"/>
    <ellipse class="cls-4" cx="68.16" cy="185.73" rx="18.14" ry="19.35"/>
    <ellipse class="cls-5" cx="54.14" cy="74.29" rx="35.89" ry="38.28"/>
    <ellipse class="cls-6" cx="29.47" cy="95.76" rx="29.47" ry="31.43"/>
    <ellipse class="cls-8" cx="134.68" cy="147.88" rx="27.78" ry="29.63"/>
    <ellipse class="cls-7" cx="104.03" cy="199.45" rx="13.29" ry="14.18"/>
    <ellipse class="cls-9" cx="154.38" cy="145.61" rx="13.29" ry="14.18"/>
  </g>
</svg>