<?xml version="1.0" encoding="UTF-8"?>
<svg id="Layer_1" data-name="Layer 1" xmlns="http://www.w3.org/2000/svg" viewBox="0 0 359.36 434.02">
  <defs>
    <style>
      .cls-1 {
        fill: #272425;
      }

      .cls-1, .cls-2, .cls-3 {
        stroke-width: 0px;
      }

      .cls-2 {
        fill: #fff;
      }

      .cls-3 {
        fill: #b40031;
      }
    </style>
  </defs>
  <polygon class="cls-3" points="59.21 375.22 207.74 434.02 269.63 392.24 325.33 140.04 282.01 92.07 77.77 87.43 28.26 194.19 59.21 375.22"/>
  <polygon class="cls-1" points="0 178.36 109.45 149.9 225.8 64.65 61.29 62.34 0 178.36"/>
  <polygon class="cls-1" points="351.34 195.89 195.99 94.47 206.4 57.08 241.34 53.21 359.36 143.66 351.34 195.89"/>
  <polygon class="cls-1" points="200.54 0 167.41 64.05 218.21 67.37 228.15 18.77 200.54 0"/>
  <ellipse class="cls-2" cx="101.48" cy="211.63" rx="12.78" ry="26.47" transform="translate(-33.75 19.8) rotate(-9.56)"/>
  <path class="cls-2" d="M185.55,292.57c0,14.62-5.72,26.47-12.78,26.47-7.06,0-12.78-11.85-12.78-26.47,0-14.62,5.72-26.47,12.78-26.47,7.06,0,12.78,11.85,12.78,26.47Z"/>
  <ellipse class="cls-2" cx="109.21" cy="326.18" rx="12.78" ry="26.47" transform="translate(-74.17 35.16) rotate(-13.7)"/>
  <ellipse class="cls-2" cx="195.03" cy="190.43" rx="26.47" ry="12.78" transform="translate(-12.95 366.62) rotate(-84.59)"/>
  <ellipse class="cls-2" cx="254.53" cy="258.33" rx="26.47" ry="12.78" transform="translate(-53.85 449.18) rotate(-77.18)"/>
  <ellipse class="cls-2" cx="225.55" cy="354.14" rx="26.47" ry="12.78" transform="translate(-181.59 456.74) rotate(-71.65)"/>
  <polyline class="cls-1" points="194.43 62.86 271.89 196.92 192.4 189.81 173.9 155.21 195.36 59.29"/>
</svg>