<?xml version="1.0" encoding="UTF-8"?>
<svg id="Layer_1" data-name="Layer 1" xmlns="http://www.w3.org/2000/svg" viewBox="0 0 188.78 228">
  <defs>
    <style>
      .cls-1 {
        fill: #395b3d;
      }

      .cls-1, .cls-2, .cls-3 {
        stroke-width: 0px;
      }

      .cls-2 {
        fill: #fff;
      }

      .cls-3 {
        fill: #b40031;
      }
    </style>
  </defs>
  <polygon class="cls-3" points="31.1 197.11 109.13 228 141.64 206.05 170.9 73.56 148.15 48.37 40.86 45.93 14.85 102.01 31.1 197.11"/>
  <polygon class="cls-1" points="0 93.69 57.5 78.74 118.62 33.96 32.2 32.75 0 93.69"/>
  <polygon class="cls-1" points="184.56 102.91 102.95 49.63 108.43 29.99 126.78 27.95 188.78 75.47 184.56 102.91"/>
  <polygon class="cls-1" points="105.35 0 87.94 33.65 114.63 35.39 119.85 9.86 105.35 0"/>
  <ellipse class="cls-2" cx="53.31" cy="111.17" rx="6.71" ry="13.91" transform="translate(-17.73 10.4) rotate(-9.56)"/>
  <ellipse class="cls-2" cx="90.76" cy="153.69" rx="6.71" ry="13.91"/>
  <ellipse class="cls-2" cx="57.37" cy="171.35" rx="6.71" ry="13.91" transform="translate(-38.96 18.47) rotate(-13.7)"/>
  <ellipse class="cls-2" cx="102.45" cy="100.04" rx="13.91" ry="6.71" transform="translate(-6.8 192.59) rotate(-84.59)"/>
  <ellipse class="cls-2" cx="133.71" cy="135.71" rx="13.91" ry="6.71" transform="translate(-28.29 235.96) rotate(-77.18)"/>
  <ellipse class="cls-2" cx="118.48" cy="186.04" rx="13.91" ry="6.71" transform="translate(-95.39 239.93) rotate(-71.65)"/>
  <polyline class="cls-1" points="102.14 33.02 142.83 103.45 101.07 99.71 91.35 81.53 102.63 31.15"/>
</svg>